<svg xmlns="http://www.w3.org/2000/svg" viewBox="0 0 48 48" aria-hidden="true">
  <path fill="#EA4335" d="M24 9.5c3.2 0 5.9 1.1 8.1 3.1l6-6C34.3 3.2 29.6 1 24 1 14.6 1 6.7 6.5 2.7 14.3l7 5.4C11.6 13.6 17.3 9.5 24 9.5z"/>
  <path fill="#4285F4" d="M46.1 24.5c0-1.6-.1-2.8-.4-4.1H24v8h12.4c-.8 2.3-2.3 4.2-4.5 5.5l6.9 5.3c4.1-3.8 6.3-9.3 6.3-14.7z"/>
  <path fill="#FBBC05" d="M9.7 28.3c-.5-1.5-.8-3-.8-4.8s.3-3.3.8-4.8l-7-5.4C1.6 16.1 1 19 1 23.5s.6 7.4 1.7 10.2l7-5.4z"/>
  <path fill="#34A853" d="M24 46c5.6 0 10.3-1.8 13.7-5l-6.9-5.3c-1.9 1.3-4.4 2.1-6.8 2.1-6.7 0-12.4-4.1-14.3-10l-7 5.4C6.7 41.5 14.6 46 24 46z"/>
</svg>
